<?xml version="1.0" standalone="no"?>
<!DOCTYPE svg PUBLIC "-//W3C//DTD SVG 20010904//EN"
 "http://www.w3.org/TR/2001/REC-SVG-20010904/DTD/svg10.dtd">
<svg version="1.0" xmlns="http://www.w3.org/2000/svg"
 width="500.000000pt" height="500.000000pt" viewBox="0 0 500.000000 500.000000"
 preserveAspectRatio="xMidYMid meet">

<g transform="translate(0.000000,500.000000) scale(0.100000,-0.100000)"
fill="#000000" stroke="none">
<path d="M0 2500 l0 -2500 2500 0 2500 0 0 2500 0 2500 -2500 0 -2500 0 0
-2500z m1087 744 c6 -15 -138 -546 -159 -586 -8 -17 -33 -18 -307 -18 -253 0
-300 2 -311 15 -10 12 2 66 65 292 42 153 81 286 87 296 8 16 33 17 314 17
271 0 305 -2 311 -16z m350 -269 c6 -18 -63 -279 -84 -312 -13 -22 -18 -23
-172 -23 -124 0 -161 3 -170 14 -9 11 -3 47 30 163 23 81 47 154 52 161 7 9
54 12 174 12 138 0 165 -2 170 -15z m596 -77 c20 -16 277 -621 277 -654 0 -13
-9 -28 -21 -34 -34 -19 -61 9 -97 99 l-33 81 -168 0 -167 0 -33 -79 c-37 -90
-59 -116 -90 -106 -44 14 -37 43 95 355 70 166 136 313 147 326 20 27 63 32
90 12z m743 1 c275 -50 376 -398 172 -596 -76 -74 -119 -87 -301 -91 -113 -3
-162 0 -172 8 -23 19 -22 652 1 674 12 13 39 16 128 16 62 0 139 -5 172 -11z
m747 -1 c20 -16 277 -621 277 -654 0 -13 -9 -28 -21 -34 -34 -19 -61 9 -97 99
l-33 81 -168 0 -167 0 -33 -79 c-37 -90 -59 -116 -90 -106 -44 14 -37 43 95
355 70 166 136 313 147 326 20 27 63 32 90 12z m565 -6 c10 -10 69 -146 132
-301 l113 -283 113 282 c62 155 121 291 130 301 24 27 91 26 121 -3 l23 -21 0
-319 0 -318 -24 -15 c-19 -13 -29 -14 -45 -5 -20 10 -21 20 -23 303 l-3 292
-115 -284 c-128 -314 -141 -335 -199 -312 -35 15 -34 14 -167 343 l-99 246 -3
-282 c-2 -268 -3 -284 -22 -301 -17 -15 -24 -16 -45 -7 l-25 12 0 325 c0 312
1 326 20 345 26 26 93 27 118 2z m-3497 -352 c10 -6 19 -17 19 -25 0 -37 -82
-301 -97 -312 -12 -9 -62 -13 -164 -13 -189 0 -187 -2 -153 118 13 48 32 115
41 150 8 35 22 70 30 78 11 11 47 14 159 14 81 0 154 -5 165 -10z m712 -5 c17
-16 21 3 -91 -395 l-58 -205 -309 -3 c-222 -2 -311 1 -316 9 -8 13 -10 2 83
334 41 148 76 255 86 263 12 9 89 12 303 12 240 0 290 -2 302 -15z m541 -496
c30 -23 33 -45 10 -77 -11 -17 -13 -26 -5 -36 6 -7 12 -28 13 -47 4 -48 -25
-47 -32 1 -5 34 -6 35 -57 38 l-53 3 0 -40 c0 -30 -4 -41 -15 -41 -12 0 -15
18 -15 103 0 57 3 107 7 110 3 4 32 7 63 7 43 0 64 -5 84 -21z m517 -39 c27 0
19 -24 -9 -28 -19 -3 -22 -10 -22 -45 0 -51 11 -70 33 -61 12 4 17 1 17 -10 0
-19 -50 -22 -68 -4 -7 7 -12 36 -12 65 0 29 -4 53 -10 53 -18 0 -10 27 13 43
19 12 23 13 30 1 4 -8 17 -14 28 -14z m-308 -41 c14 -29 15 -42 6 -68 -13 -37
-35 -51 -83 -51 -65 0 -98 79 -56 133 38 48 105 40 133 -14z m479 22 c10 -9
19 -27 20 -41 3 -24 0 -25 -55 -28 -49 -3 -58 -6 -55 -20 3 -13 15 -17 51 -18
52 -1 69 -10 47 -24 -26 -17 -95 -12 -113 8 -71 78 30 196 105 123z m153 0
c-6 -5 -19 -11 -30 -13 -17 -3 -21 -13 -25 -63 -4 -44 -9 -60 -20 -60 -12 0
-15 15 -15 75 l0 74 33 2 c18 1 36 5 39 8 4 3 11 2 17 -4 6 -6 6 -13 1 -19z
m135 2 c0 -11 -7 -14 -27 -10 -62 12 -73 -24 -13 -42 44 -13 63 -49 40 -76
-17 -20 -94 -20 -110 0 -7 8 -9 15 -4 16 5 0 25 1 44 2 44 2 49 19 9 32 -85
29 -58 110 32 97 17 -3 29 -10 29 -19z m-690 -43 c0 -66 10 -77 55 -66 21 5
24 12 27 64 2 43 7 57 18 57 12 0 15 -15 15 -74 l0 -75 -57 -3 c-76 -4 -88 9
-88 93 0 50 3 64 15 64 12 0 15 -13 15 -60z"/>
<path d="M1925 2633 c-33 -81 -61 -150 -63 -155 -2 -4 56 -8 128 -8 122 0 132
1 126 18 -31 82 -121 292 -125 292 -3 0 -33 -66 -66 -147z"/>
<path d="M2550 2561 l0 -261 103 0 c124 0 180 16 232 67 54 52 75 105 75 188
0 115 -52 199 -149 242 -23 10 -77 17 -148 21 l-113 5 0 -262z"/>
<path d="M3415 2633 c-33 -81 -61 -150 -63 -155 -2 -4 56 -8 128 -8 122 0 132
1 126 18 -31 82 -121 292 -125 292 -3 0 -33 -66 -66 -147z"/>
<path d="M1722 1993 c3 -38 3 -38 47 -37 51 1 77 25 60 55 -7 15 -21 19 -60
19 l-50 0 3 -37z"/>
<path d="M1951 1961 c-33 -33 -22 -79 20 -94 39 -13 76 51 51 89 -15 24 -50
26 -71 5z"/>
<path d="M2452 1968 c-21 -21 -13 -28 28 -28 22 0 40 4 40 8 0 14 -23 32 -40
32 -9 0 -21 -5 -28 -12z"/>
</g>
</svg>
